<?xml version="1.0" encoding="UTF-8"?>
<svg xmlns="http://www.w3.org/2000/svg" version="1.1" width="400" height="400" viewBox="0 0 400 400"><rect x="0" y="0" width="400" height="400" fill="#fefefe"/><g transform="scale(9.756)"><g transform="translate(4,4)"><path fill-rule="evenodd" d="M8 0L8 1L9 1L9 2L8 2L8 5L9 5L9 4L11 4L11 5L10 5L10 10L9 10L9 11L8 11L8 12L6 12L6 11L7 11L7 10L8 10L8 9L9 9L9 8L8 8L8 9L7 9L7 8L6 8L6 9L7 9L7 10L6 10L6 11L4 11L4 10L5 10L5 9L4 9L4 8L0 8L0 10L1 10L1 11L0 11L0 12L2 12L2 13L0 13L0 14L1 14L1 15L0 15L0 16L1 16L1 17L0 17L0 18L1 18L1 19L2 19L2 18L3 18L3 20L0 20L0 22L1 22L1 21L2 21L2 22L3 22L3 23L1 23L1 24L0 24L0 25L1 25L1 24L2 24L2 25L3 25L3 24L5 24L5 23L8 23L8 24L9 24L9 25L8 25L8 26L12 26L12 28L11 28L11 29L10 29L10 30L9 30L9 29L8 29L8 33L14 33L14 32L13 32L13 30L14 30L14 29L12 29L12 28L14 28L14 27L15 27L15 28L16 28L16 29L15 29L15 31L16 31L16 29L17 29L17 26L16 26L16 25L15 25L15 26L14 26L14 25L13 25L13 26L12 26L12 24L16 24L16 23L17 23L17 22L16 22L16 23L15 23L15 22L14 22L14 23L11 23L11 20L12 20L12 19L11 19L11 18L10 18L10 17L11 17L11 16L12 16L12 17L13 17L13 16L12 16L12 14L13 14L13 15L14 15L14 18L13 18L13 21L15 21L15 19L17 19L17 21L19 21L19 22L21 22L21 23L19 23L19 24L21 24L21 23L24 23L24 24L22 24L22 26L20 26L20 25L19 25L19 28L18 28L18 29L19 29L19 28L20 28L20 32L19 32L19 30L17 30L17 32L15 32L15 33L20 33L20 32L21 32L21 33L22 33L22 32L21 32L21 31L22 31L22 30L21 30L21 29L24 29L24 30L23 30L23 32L25 32L25 31L26 31L26 32L27 32L27 33L31 33L31 32L30 32L30 31L31 31L31 30L30 30L30 31L28 31L28 29L29 29L29 27L30 27L30 29L31 29L31 28L33 28L33 27L31 27L31 26L30 26L30 24L29 24L29 22L30 22L30 23L31 23L31 24L32 24L32 25L33 25L33 24L32 24L32 23L33 23L33 21L31 21L31 20L30 20L30 18L31 18L31 19L32 19L32 20L33 20L33 19L32 19L32 18L33 18L33 16L31 16L31 14L32 14L32 13L30 13L30 12L27 12L27 11L26 11L26 10L27 10L27 9L26 9L26 8L25 8L25 6L24 6L24 7L23 7L23 6L22 6L22 7L23 7L23 8L21 8L21 9L18 9L18 7L19 7L19 8L20 8L20 7L21 7L21 6L20 6L20 5L21 5L21 4L20 4L20 3L21 3L21 2L18 2L18 1L17 1L17 2L16 2L16 4L15 4L15 3L14 3L14 5L13 5L13 3L12 3L12 4L11 4L11 2L14 2L14 0L12 0L12 1L11 1L11 0L10 0L10 1L9 1L9 0ZM15 0L15 1L16 1L16 0ZM19 0L19 1L22 1L22 2L23 2L23 3L22 3L22 4L24 4L24 5L25 5L25 1L24 1L24 0ZM17 2L17 3L18 3L18 4L19 4L19 3L18 3L18 2ZM16 4L16 5L14 5L14 6L13 6L13 5L12 5L12 6L11 6L11 8L12 8L12 6L13 6L13 8L14 8L14 9L15 9L15 10L14 10L14 11L11 11L11 13L10 13L10 15L11 15L11 13L12 13L12 12L13 12L13 14L14 14L14 15L16 15L16 16L15 16L15 17L16 17L16 16L17 16L17 19L19 19L19 20L23 20L23 21L21 21L21 22L23 22L23 21L24 21L24 22L25 22L25 24L26 24L26 22L25 22L25 21L27 21L27 20L28 20L28 22L29 22L29 21L30 21L30 22L31 22L31 21L30 21L30 20L28 20L28 19L29 19L29 18L28 18L28 15L29 15L29 16L30 16L30 14L29 14L29 13L28 13L28 14L27 14L27 12L26 12L26 11L24 11L24 12L23 12L23 13L22 13L22 11L21 11L21 10L23 10L23 9L21 9L21 10L19 10L19 11L20 11L20 14L21 14L21 13L22 13L22 16L23 16L23 17L24 17L24 18L23 18L23 19L21 19L21 18L20 18L20 17L21 17L21 16L20 16L20 15L19 15L19 12L18 12L18 10L17 10L17 8L16 8L16 5L17 5L17 4ZM18 5L18 6L17 6L17 7L18 7L18 6L19 6L19 7L20 7L20 6L19 6L19 5ZM8 6L8 7L9 7L9 6ZM14 6L14 7L15 7L15 6ZM24 8L24 10L26 10L26 9L25 9L25 8ZM28 8L28 9L30 9L30 11L31 11L31 12L32 12L32 11L33 11L33 8L32 8L32 9L31 9L31 8ZM2 9L2 12L3 12L3 10L4 10L4 9ZM11 9L11 10L12 10L12 9ZM16 11L16 12L14 12L14 14L16 14L16 15L18 15L18 17L19 17L19 15L18 15L18 12L17 12L17 11ZM5 12L5 13L2 13L2 15L1 15L1 16L2 16L2 17L1 17L1 18L2 18L2 17L3 17L3 18L5 18L5 17L3 17L3 16L4 16L4 15L3 15L3 14L5 14L5 15L6 15L6 16L7 16L7 15L9 15L9 14L7 14L7 13L6 13L6 12ZM24 12L24 15L25 15L25 17L26 17L26 18L25 18L25 19L26 19L26 20L27 20L27 19L26 19L26 18L27 18L27 15L26 15L26 12ZM5 13L5 14L6 14L6 15L7 15L7 14L6 14L6 13ZM16 13L16 14L17 14L17 13ZM8 16L8 17L9 17L9 16ZM6 17L6 18L7 18L7 17ZM31 17L31 18L32 18L32 17ZM9 18L9 19L10 19L10 20L8 20L8 19L6 19L6 20L8 20L8 23L10 23L10 24L11 24L11 23L10 23L10 22L9 22L9 21L10 21L10 20L11 20L11 19L10 19L10 18ZM4 19L4 20L3 20L3 22L4 22L4 23L5 23L5 22L4 22L4 20L5 20L5 19ZM23 19L23 20L24 20L24 19ZM6 21L6 22L7 22L7 21ZM27 23L27 24L28 24L28 23ZM6 24L6 25L7 25L7 24ZM17 24L17 25L18 25L18 24ZM25 25L25 28L28 28L28 25ZM13 26L13 27L14 27L14 26ZM15 26L15 27L16 27L16 26ZM26 26L26 27L27 27L27 26ZM20 27L20 28L21 28L21 27ZM11 29L11 30L12 30L12 29ZM26 29L26 30L27 30L27 29ZM32 29L32 30L33 30L33 29ZM24 30L24 31L25 31L25 30ZM9 31L9 32L10 32L10 31ZM11 31L11 32L12 32L12 31ZM27 31L27 32L28 32L28 31ZM32 31L32 32L33 32L33 31ZM0 0L0 7L7 7L7 0ZM1 1L1 6L6 6L6 1ZM2 2L2 5L5 5L5 2ZM26 0L26 7L33 7L33 0ZM27 1L27 6L32 6L32 1ZM28 2L28 5L31 5L31 2ZM0 26L0 33L7 33L7 26ZM1 27L1 32L6 32L6 27ZM2 28L2 31L5 31L5 28Z" fill="#000000"/></g></g></svg>
