<?xml version="1.0" encoding="UTF-8"?>
<svg xmlns="http://www.w3.org/2000/svg" version="1.1" width="400" height="400" viewBox="0 0 400 400"><rect x="0" y="0" width="400" height="400" fill="#fefefe"/><g transform="scale(9.756)"><g transform="translate(4,4)"><path fill-rule="evenodd" d="M10 0L10 2L11 2L11 0ZM12 0L12 1L13 1L13 2L12 2L12 4L13 4L13 3L14 3L14 4L18 4L18 3L14 3L14 2L17 2L17 1L16 1L16 0L15 0L15 1L14 1L14 0ZM19 0L19 1L18 1L18 2L19 2L19 1L20 1L20 3L19 3L19 5L15 5L15 6L14 6L14 8L15 8L15 9L12 9L12 7L13 7L13 5L11 5L11 6L10 6L10 4L11 4L11 3L8 3L8 4L9 4L9 5L8 5L8 7L9 7L9 8L6 8L6 9L7 9L7 10L4 10L4 13L9 13L9 15L11 15L11 17L10 17L10 16L9 16L9 17L8 17L8 15L7 15L7 14L6 14L6 15L5 15L5 14L3 14L3 13L2 13L2 11L0 11L0 13L1 13L1 14L0 14L0 15L1 15L1 16L0 16L0 17L2 17L2 18L3 18L3 17L4 17L4 16L5 16L5 18L4 18L4 19L3 19L3 20L2 20L2 19L0 19L0 20L2 20L2 23L3 23L3 25L4 25L4 24L5 24L5 25L7 25L7 24L6 24L6 23L8 23L8 22L6 22L6 21L7 21L7 20L8 20L8 21L9 21L9 20L10 20L10 21L11 21L11 19L9 19L9 20L8 20L8 19L7 19L7 18L9 18L9 17L10 17L10 18L11 18L11 17L12 17L12 18L13 18L13 19L12 19L12 21L13 21L13 20L14 20L14 21L18 21L18 20L16 20L16 19L17 19L17 18L15 18L15 17L18 17L18 18L21 18L21 19L20 19L20 21L19 21L19 22L15 22L15 23L14 23L14 24L15 24L15 23L16 23L16 24L17 24L17 26L18 26L18 27L19 27L19 28L20 28L20 27L21 27L21 28L22 28L22 29L18 29L18 28L17 28L17 27L16 27L16 26L15 26L15 25L12 25L12 23L13 23L13 22L9 22L9 23L11 23L11 24L10 24L10 25L8 25L8 27L9 27L9 26L11 26L11 25L12 25L12 26L13 26L13 27L12 27L12 29L13 29L13 28L14 28L14 29L16 29L16 30L15 30L15 31L14 31L14 32L16 32L16 30L17 30L17 31L19 31L19 30L20 30L20 31L21 31L21 32L22 32L22 33L23 33L23 32L22 32L22 30L23 30L23 31L24 31L24 30L23 30L23 28L24 28L24 29L28 29L28 30L25 30L25 31L27 31L27 32L29 32L29 33L30 33L30 32L31 32L31 33L32 33L32 32L31 32L31 30L33 30L33 27L32 27L32 26L33 26L33 24L32 24L32 26L31 26L31 25L30 25L30 24L31 24L31 23L32 23L32 22L33 22L33 21L32 21L32 20L31 20L31 19L32 19L32 18L33 18L33 17L32 17L32 16L31 16L31 15L32 15L32 14L33 14L33 13L31 13L31 15L30 15L30 16L31 16L31 19L30 19L30 17L29 17L29 14L27 14L27 13L30 13L30 12L31 12L31 11L32 11L32 10L33 10L33 9L32 9L32 8L31 8L31 9L30 9L30 8L29 8L29 9L30 9L30 10L29 10L29 11L28 11L28 10L27 10L27 9L28 9L28 8L27 8L27 9L26 9L26 8L23 8L23 10L22 10L22 11L21 11L21 9L20 9L20 8L22 8L22 7L23 7L23 5L24 5L24 7L25 7L25 5L24 5L24 4L25 4L25 3L24 3L24 2L23 2L23 1L24 1L24 0ZM8 1L8 2L9 2L9 1ZM20 3L20 5L19 5L19 7L20 7L20 6L21 6L21 7L22 7L22 6L21 6L21 4L22 4L22 5L23 5L23 4L22 4L22 3ZM9 6L9 7L10 7L10 6ZM11 6L11 7L12 7L12 6ZM15 6L15 8L18 8L18 6L17 6L17 7L16 7L16 6ZM0 8L0 10L1 10L1 9L2 9L2 10L3 10L3 9L5 9L5 8ZM10 8L10 9L9 9L9 12L11 12L11 13L10 13L10 14L13 14L13 15L12 15L12 17L15 17L15 16L14 16L14 15L15 15L15 14L16 14L16 16L18 16L18 17L20 17L20 14L19 14L19 16L18 16L18 15L17 15L17 14L18 14L18 13L19 13L19 12L20 12L20 13L21 13L21 15L22 15L22 16L21 16L21 18L23 18L23 19L22 19L22 20L21 20L21 23L22 23L22 22L23 22L23 24L25 24L25 23L28 23L28 24L30 24L30 23L31 23L31 20L30 20L30 19L29 19L29 17L28 17L28 18L26 18L26 19L25 19L25 18L23 18L23 17L22 17L22 16L25 16L25 15L27 15L27 16L26 16L26 17L27 17L27 16L28 16L28 15L27 15L27 14L25 14L25 13L24 13L24 12L23 12L23 11L25 11L25 10L26 10L26 9L24 9L24 10L23 10L23 11L22 11L22 12L21 12L21 11L20 11L20 10L18 10L18 11L17 11L17 9L15 9L15 10L16 10L16 12L18 12L18 13L14 13L14 12L15 12L15 11L14 11L14 12L13 12L13 13L12 13L12 11L13 11L13 10L12 10L12 9L11 9L11 8ZM10 9L10 11L11 11L11 9ZM30 10L30 11L29 11L29 12L30 12L30 11L31 11L31 10ZM5 11L5 12L7 12L7 11ZM22 12L22 13L23 13L23 14L22 14L22 15L23 15L23 14L24 14L24 13L23 13L23 12ZM26 12L26 13L27 13L27 12ZM1 14L1 15L3 15L3 14ZM6 15L6 16L7 16L7 15ZM6 17L6 18L5 18L5 19L4 19L4 21L5 21L5 19L6 19L6 20L7 20L7 19L6 19L6 18L7 18L7 17ZM14 19L14 20L15 20L15 19ZM24 19L24 21L23 21L23 22L24 22L24 21L25 21L25 22L28 22L28 23L30 23L30 21L29 21L29 19L27 19L27 20L28 20L28 21L26 21L26 20L25 20L25 19ZM0 21L0 25L1 25L1 21ZM28 21L28 22L29 22L29 21ZM3 22L3 23L5 23L5 22ZM19 22L19 24L18 24L18 23L17 23L17 24L18 24L18 25L22 25L22 24L20 24L20 22ZM23 25L23 26L21 26L21 27L23 27L23 26L24 26L24 25ZM25 25L25 28L28 28L28 25ZM29 25L29 26L30 26L30 27L29 27L29 28L30 28L30 29L29 29L29 30L28 30L28 31L29 31L29 32L30 32L30 29L32 29L32 28L30 28L30 27L31 27L31 26L30 26L30 25ZM19 26L19 27L20 27L20 26ZM26 26L26 27L27 27L27 26ZM10 27L10 28L11 28L11 27ZM14 27L14 28L15 28L15 27ZM8 28L8 33L9 33L9 32L11 32L11 33L12 33L12 31L13 31L13 30L10 30L10 29L9 29L9 28ZM17 29L17 30L18 30L18 29ZM17 32L17 33L18 33L18 32ZM24 32L24 33L26 33L26 32ZM0 0L0 7L7 7L7 0ZM1 1L1 6L6 6L6 1ZM2 2L2 5L5 5L5 2ZM26 0L26 7L33 7L33 0ZM27 1L27 6L32 6L32 1ZM28 2L28 5L31 5L31 2ZM0 26L0 33L7 33L7 26ZM1 27L1 32L6 32L6 27ZM2 28L2 31L5 31L5 28Z" fill="#000000"/></g></g></svg>
